# xmcd
#
# Track frame offsets: 
#        150
#        15532
#        33701
#        74311
#        89351
#        104218
#        124922
#        141462
#        162189
#        180247
#        198426
#        220314
#        239627
#        264105
#
# Disc length: 3895 seconds
#
# Revision: 0
# Processed by: cddbd v1.5.2PL0 Copyright (c) Steve Scherf et al.
# Submitted via: ExactAudioCopy v1.3
#
DISCID=cf0f350e
DTITLE=Various Artist - Soul Bag Samapler, Dec 2011
DYEAR=2011
DGENRE=Blues
TTITLE0=The Bo-Keys feat. Otis Clay - Go to get back (to my baby)
TTITLE1=The Soul Of John Black - My brother
TTITLE2=Jill Scott - Le boom vent suite
TTITLE3=Keith B. Brown - Down the line
TTITLE4=Nico Duportal and His Rhythm Dudes - Ready for Raph
TTITLE5=Candye Kane - Walkin', Talkin' haunted house
TTITLE6=Big Daddy Wilson - This is how I live
TTITLE7=Slim Moore and The Mar-Kays - Just can't get ahead
TTITLE8=Demetria Taylor - I can't take it no more
TTITLE9=Ledisi - Hate me
TTITLE10=Kindred The Family Soul - Take a look around
TTITLE11=Roy Roberts - I'm never gonna stop
TTITLE12=Jumpin' To The Westside - Don't smile at me
TTITLE13=Cornell Dupree - C.L. blues
EXTD=
EXTT0=
EXTT1=
EXTT2=
EXTT3=
EXTT4=
EXTT5=
EXTT6=
EXTT7=
EXTT8=
EXTT9=
EXTT10=
EXTT11=
EXTT12=
EXTT13=
PLAYORDER=
